# xmcd
#
# Track frame offsets:
#	150
#	17092
#	34512
#	55097
#	77517
#	94430
#	114485
#	134955
#	153525
#	168192
#	190112
#	212697
#
# Disc length: 3051 seconds
#
# Revision: 0
# Processed by: cddbd v1.5.2PL0 Copyright (c) Steve Scherf et al.
# Submitted via: dBpowerAMP V4.0
#
DISCID=9c0be90c
DTITLE=Denian and Dianini - Os Gauchinhos De Deus - Mora Em Mim
DYEAR=1900
DGENRE=Gospel
TTITLE0=Deus Te Ungiu Pra Vencer
TTITLE1=Mora Em Mim
TTITLE2=Promessas De Deus
TTITLE3=O Melhor De Deus
TTITLE4=Deus Vai Te Honrar
TTITLE5=Santo É O Senhor
TTITLE6=Oferta Agradável
TTITLE7=Exaltar-te-ei
TTITLE8=Agora Tenho Paz
TTITLE9=Bendito Seja
TTITLE10=Na Casa Do Rei
TTITLE11=Seja Adorado
EXTD=
EXTT0=
EXTT1=
EXTT2=
EXTT3=
EXTT4=
EXTT5=
EXTT6=
EXTT7=
EXTT8=
EXTT9=
EXTT10=
EXTT11=
PLAYORDER=
